<svg xmlns="http://www.w3.org/2000/svg" viewBox="0 0 180 58.17" width="180" height="58"><title>msi-logo</title><path d="M168.7,44.34l8.53-23.54a73.9,73.9,0,0,0-12.76,1.28L156.4,44.34Zm-1.46-29.9L165.6,19a74.21,74.21,0,0,1,12.76-1.28L180,13.16a73.9,73.9,0,0,0-12.76,1.28Z" style="fill-rule:evenodd"/><path d="M122.74,38.75a65.81,65.81,0,0,0,11.83,1.07c2.66,0,7.09-.32,7.48-3.74.16-1.34-1.29-2.26-3.62-3.54-2.65-1.47-4.7-2.24-7-3.79a5.66,5.66,0,0,1-2.53-6.55c2.33-7.71,13.61-9,20.27-9a71.29,71.29,0,0,1,13.4,1.28L161,18.75c-4-.73-18.63-3.22-19.31,2.67-.16,1.35,1.2,2.22,3.52,3.5,2.66,1.46,4.8,2.29,7.1,3.83a5.66,5.66,0,0,1,2.53,6.55c-2.34,7.71-13.61,9-20.27,9a70.8,70.8,0,0,1-13.39-1.28l1.56-4.31Z" style="fill-rule:evenodd"/><path d="M104.2,44.34l7.12-19.64c2.8-7.72-10.47-4.64-13.62,4.05L92,44.34H79.75L86.87,24.7c2.8-7.72-10.48-4.64-13.63,4.05L67.59,44.34H55.29L66.6,13.16c3.91,0,6,.9,7.81,2.65a5,5,0,0,1,1.28,2.36,40.86,40.86,0,0,1,5.71-3,25.85,25.85,0,0,1,9.65-2c3.92,0,6,.9,7.81,2.65a4.93,4.93,0,0,1,1.28,2.36,41.42,41.42,0,0,1,5.72-3,25.76,25.76,0,0,1,9.65-2c3.91,0,6,.9,7.81,2.65s1.73,4.94,1.09,6.7L116.5,44.34Z" style="fill-rule:evenodd"/><path d="M.7,9.52C7.58,5.23,16,1.36,24,0l.24,0,.24,0c8,1.32,16.45,5.19,23.33,9.48l.7.44v.82c.06,10.4-1.62,21.49-6.39,30.84C38.42,48.93,32.68,55.26,24.76,58l-.48.17L23.79,58C15.88,55.26,10.13,48.93,6.4,41.62,1.63,32.27-.06,21.18,0,10.78V10L.7,9.52Z" style="fill:#8a8a8b;fill-rule:evenodd"/><path d="M1.5,10.79C8.69,6.3,16.94,2.72,24.27,1.52h0c7.33,1.2,15.58,4.78,22.78,9.27.13,24.05-9.16,41.07-22.78,45.79h0C10.65,51.86,1.36,34.84,1.5,10.79Z" style="fill:#ed1c24;fill-rule:evenodd"/><path d="M30.93,20.12c-3,3.47-7.77,4-11.06,4.12-.37,0-1.12.08-1.31.35a.43.43,0,0,0,.16.54c3.72,2.62,8.57.7,11.12-.56-2.95,2.65-7.91,3.11-12.15,1.56-.54-.18-.88-.24-1.06-.05a.58.58,0,0,0,0,.67c1.19,2.22,2.05,3.93,5.08,4.89-3.52-.2-5.72-3.54-6.24-5.32,0,3,2.55,5,3.62,6.23-1.39.05-2.76.16-3.35,1.2-.42.66-.41,1.62-1,2.5-1.63-3-2.92-7.28-1.7-11a10.75,10.75,0,0,1,6.36-7.06,28.92,28.92,0,0,0-2.63,3.33c-.65,1.22.15,1.65,1,.08,1.26,3.05,10.31,1.23,12.68-1.68l.86-.36-.42.55ZM25.21,46.45a.48.48,0,0,1,.53-.17.54.54,0,0,1,.32.84c-.28.38-.74.65-1,1a1.93,1.93,0,0,0-.28.53h0a2.74,2.74,0,0,1,.47-2.22ZM21,45.13a.69.69,0,0,1,.82,0,.82.82,0,0,1,.14.83,3.58,3.58,0,0,1-.81.61A2.73,2.73,0,0,0,20,47.65,4.24,4.24,0,0,1,20.34,46a2.17,2.17,0,0,1,.64-.88ZM31,44.61a.5.5,0,0,1,.43,0,.57.57,0,0,1,.25.4,5.75,5.75,0,0,0,.22,1.08,2.82,2.82,0,0,0,.22.42A2.23,2.23,0,0,1,31.3,46a1.82,1.82,0,0,1-.53-.87.46.46,0,0,1,.26-.51Zm-13.16-2a.64.64,0,0,1,.69.15c.19.19.1.45.09.67a.46.46,0,0,1-.31.34c-.43.21-.92.39-1.35.61a1.86,1.86,0,0,0-.69.57,3.56,3.56,0,0,1,.39-1.12,2.62,2.62,0,0,1,1.18-1.22Zm17.87-3c0-.18.14-.34.33-.43a2.19,2.19,0,0,1,.94.32,1.52,1.52,0,0,0,.56.12,2.27,2.27,0,0,1-1.21.37c-.27,0-.58-.15-.62-.38ZM15.26,38c.11-.08.27,0,.4,0a.61.61,0,0,1,.46.6c0,.27,0,.6-.3.77a16.73,16.73,0,0,0-1.79.92,2,2,0,0,0-.46.46,4.34,4.34,0,0,1,.89-2.13,2.49,2.49,0,0,1,.8-.62Zm7.41-2.91A4.21,4.21,0,0,1,24,34.84a2,2,0,0,0-1,.56c-.09.13-.18.31,0,.43s.4.06.57.13.12.31.09.46a4.31,4.31,0,0,1-.67,1.36.42.42,0,0,0-.1.32c.13,0,.23-.09.33-.14a5.57,5.57,0,0,0,1.12-.91c.13-.16.33-.3.35-.51s-.26-.21-.28-.35a1.34,1.34,0,0,1,.72-.51,1.81,1.81,0,0,1,2,.32,5.26,5.26,0,0,0-1-.27c-.18,0-.38.07-.42.21s0,.38-.06.57a2.45,2.45,0,0,1-1.36,1.62,2.78,2.78,0,0,0-.73.37.62.62,0,0,0-.23.45,1.7,1.7,0,0,0,.51.07,2.72,2.72,0,0,0,1.14-.08c.33-.13.47-.45.81-.56a2.11,2.11,0,0,1,2.42.75c-.28-.13-.51-.32-.81-.43a1.05,1.05,0,0,0-.93.12,2.3,2.3,0,0,0-.6.69.36.36,0,0,1-.26.21c-.24,0-.45-.16-.69-.1s-.63.25-1,.33a1.7,1.7,0,0,1-.71,0A7,7,0,0,0,22,39.76a.67.67,0,0,0-.54.15,1,1,0,0,0-.16.64,9,9,0,0,1-.36-1.6,7.28,7.28,0,0,1-.07-2,1.75,1.75,0,0,1,.29.92.39.39,0,0,0,.32.35.82.82,0,0,0,.6-.38,1.62,1.62,0,0,0,.41-1.1c0-.17-.27-.18-.37-.31a.66.66,0,0,1-.1-.72,1.13,1.13,0,0,1,.66-.56Zm15.44-.88c0-.14.21-.18.36-.17s.56,0,.83,0a1.59,1.59,0,0,1-.82.47c-.22,0-.42-.12-.37-.29Zm.21-3.43a4,4,0,0,0,.59-.28.92.92,0,0,1-.5.6.17.17,0,0,1-.09-.32ZM28.4,27.26a2.9,2.9,0,0,0,1.89,2.42,11.65,11.65,0,0,0,4.08,0c1.05,0,2-.23,2.8.32a2.24,2.24,0,0,1,.74,1,11.82,11.82,0,0,1,.48,1.1,1.26,1.26,0,0,1-.14,1,3.19,3.19,0,0,0-.54,1.38c-.05.48-.15.94-.24,1.41A5.13,5.13,0,0,1,37,37.31c-.23.41-.64.72-.91,1.11a7.41,7.41,0,0,0-.95,2c-.19.54-.26,1.11-.42,1.66a1.87,1.87,0,0,1-.93,1.22,26.2,26.2,0,0,1-2.55.83A7.58,7.58,0,0,0,29.4,45.4a3.29,3.29,0,0,1-1.56.87c-1.26.19-1.59-.81-3.86,0a1,1,0,0,1-.87,0c-.54-.26-.6-1-1.21-1.33a8.34,8.34,0,0,0-2-.43,1,1,0,0,1-.71-.46c-.19-.4-.2-.83-.37-1.23-.44-.9-1.89-1.19-2.3-2s.15-1.32.15-2c0-.93-.67-1.39-1.89-1.43a7.29,7.29,0,0,0,1.15-2.84,1.93,1.93,0,0,1,.65-1A5.21,5.21,0,0,1,17.89,33a2.72,2.72,0,0,1,1.55.08c1.16.63.9,2.31.29,3-.84.94-2.92.75-2.56-.72.43.36.84.92,1.44.26a.32.32,0,0,0,.07-.23.89.89,0,0,0-.6-.59.81.81,0,0,0-.53-.06,2,2,0,0,0-1.24,1c-.47.93.55,1.67,1.72,1.49A4.58,4.58,0,0,0,20.32,36a21.09,21.09,0,0,0,.1,3.26,9.32,9.32,0,0,0,.83,2.64,3.72,3.72,0,0,0,1.88,1.66,7.38,7.38,0,0,0,2.9.37,14.42,14.42,0,0,0,5.56-1.44c2.19-1.16,2.51-2.09,3.58-3.9a21.77,21.77,0,0,0,1.25-2.8A8.11,8.11,0,0,0,37,32.92a2.5,2.5,0,0,0-.53-1.66c-1-1.21-3-.69-4.89-.75a.78.78,0,0,0,0,.92c.46.5,1.58.42,2.33.48-3.23,1.32-6.12-.12-6.93-2.66.68.84,1.77,2.56,3.41,2.05.6-.18.33-.6.14-.93-.05-.12-.26-.12-.38-.16a2.44,2.44,0,0,1-1.75-2.95ZM18,26.71c.25.19.33.45.57.64,2.29,1.74,4.31,1.73,7.23,1.83-2.59.63-5.88.24-7.73-1.5a2.75,2.75,0,0,1-.58-.75c-.14-.4.22-.45.51-.22Zm10.82-.48c2.34-.12,4.73.76,5.48,3a3.18,3.18,0,0,0-2.06-.52c-.13,0-.25.1-.27.21s.07.36.15.55a2.76,2.76,0,0,1-2.79-1.11,3.56,3.56,0,0,0,.9.37,1.8,1.8,0,0,0,1.62-.54c.23-.25.09-.57-.18-.76a10.47,10.47,0,0,0-2.85-1.23ZM31.23,22c.31-.22.57-.48.86-.72-1.31,2-4.49,3.57-7,4-1.27.25-4,.58-5.19-.05-.13-.07-.26-.22-.14-.34a1.28,1.28,0,0,1,.73-.11c.49,0,1,0,1.51,0a23.33,23.33,0,0,0,3.83-.37A13.52,13.52,0,0,0,31.23,22ZM7.59,14.78a1.74,1.74,0,0,1,1.08.13,2.05,2.05,0,0,1,.84.81.58.58,0,0,1,.12.5l-.34.07c-.1.09-.07.22-.06.33a5.09,5.09,0,0,0,.57,1.61.55.55,0,0,0,.18.19,7.38,7.38,0,0,1,.19-1.81c.05-.09.1-.2.23-.22s.38.18.59.14.16-.28.14-.42c-.05-.37-.42-.62-.65-.92a3.07,3.07,0,0,1,1.25,1.25.72.72,0,0,1-.22.9.71.71,0,0,1-.52.06,1.31,1.31,0,0,0-.23,1.3c0,.11.05.3.25.29a4.24,4.24,0,0,0,1-.54,11,11,0,0,0-2,2.69,2.36,2.36,0,0,0,0-.75.58.58,0,0,0-.34-.31c-.38-.19-.83-.29-1.22-.47a2.81,2.81,0,0,1-.88-.87c-.16-.2-.48-.09-.68-.25a3,3,0,0,1-.08-.59c-.06-.31-.08-.71-.42-.91a2.33,2.33,0,0,0-1.21-.2h0a2,2,0,0,1,1-.18,2.05,2.05,0,0,1,1.29.72c.21.25.17.57.37.82a2.46,2.46,0,0,0,.6.42,2.33,2.33,0,0,0,.75.34.92.92,0,0,0-.2-.85,2.46,2.46,0,0,1-.61-1.38,1.47,1.47,0,0,1,.16-1c.08-.16.23-.34.1-.51s-.69-.3-1.06-.4ZM22.06,9.21c1,.68,2.41,1.52,3.55,2.1-.25.2-.54.5-.88.5a8.5,8.5,0,0,1-2.67-2.6Zm1.53-2.28h0a15,15,0,0,0,5.5,4.54,4.75,4.75,0,0,0,2,.56c.41,0,.8-.24,1.2-.24a2.35,2.35,0,0,1,1.3.43.39.39,0,0,1,.19.27,2.34,2.34,0,0,0,.66,1.33,1.26,1.26,0,0,0,1,.14.78.78,0,0,0,.55.63c.32.06.58-.26.92-.17.14.18.22.36.37.54s.35.16.51.27a3.12,3.12,0,0,1,1.22,1.4,3.2,3.2,0,0,0-1.28-1c0,.79,0,1.91-.58,2.33a2.64,2.64,0,0,0-.3-1.46,4.15,4.15,0,0,1-1.55.93c.24-.29.7-.61.55-1a1.19,1.19,0,0,0-1-.14,3.26,3.26,0,0,0-1.36.73,6.2,6.2,0,0,0-.32-.79c-.28,0-1.31.39-1,.85.45.56,1.17.34,1.6.42a1.2,1.2,0,0,1,.63.56c0-.21,0-.42.08-.63a15.16,15.16,0,0,1,1.21,1.71c.52-.23.62-.47.69-1.13a1.78,1.78,0,0,1,.24,1,1,1,0,0,0,.32-.43,2.19,2.19,0,0,1-1.29,2.67c.24-.6.33-1.12-.48-1.12a15,15,0,0,0-2,.31c.25-.13,1.33-.75,1.14-1.1a.66.66,0,0,0-.4-.25,5.37,5.37,0,0,0-1.21-.4c-.21,0-.39.12-.57.19-1.05-.5-1.42.12-2.18.23a2,2,0,0,1-1.88-.88c-.84-1.31.42-2.11,1.49-2.44-1.41-.17-2,.31-2.31,1.72a11.66,11.66,0,0,0-1.85-.4c-4.68-.69-8.38.69-10.53,3a13,13,0,0,0-3.33,8.37c-.06,3,.86,4.8,2.43,7.44a14.15,14.15,0,0,1-4-5.76c-.28.33-.19.74-.27,1.12C8.51,29.48,10.34,25,11.2,23a6.15,6.15,0,0,0-1.59,1.35c-.08-2.55,2.17-5.14,4.48-7.22a7,7,0,0,0-1.89.69c2.21-2.33,6.26-3.68,9.9-3.81a18.29,18.29,0,0,0-2.79-.5c2.85-.59,4.81-.62,6.73-1.89.89.58,1.94,1.17,2.45,1C27,11.5,24.13,8.93,23.59,6.93ZM32,13a5.86,5.86,0,0,0,.57.66,1.08,1.08,0,0,0,1,.32,2.43,2.43,0,0,0-.27-.62.44.44,0,0,0-.28-.14c-.35-.06-.69-.16-1-.22Z" style="fill-rule:evenodd"/><path d="M30.77,19.73c-3,3.47-7.76,4-11,4.12-.38,0-1.12.08-1.31.35a.44.44,0,0,0,.15.54c3.73,2.62,8.58.7,11.13-.56-3,2.65-7.91,3.11-12.15,1.56-.54-.18-.88-.24-1.06,0a.57.57,0,0,0,0,.67c1.19,2.22,2.05,3.93,5.07,4.89-3.51-.2-5.71-3.54-6.23-5.32-.05,3,2.55,5,3.62,6.22-1.4.06-2.76.17-3.35,1.21-.42.66-.41,1.62-1,2.5-1.63-3-2.92-7.28-1.7-11a10.76,10.76,0,0,1,6.35-7.06,28.84,28.84,0,0,0-2.62,3.33c-.65,1.22.15,1.65,1.05.08,1.26,3.05,10.3,1.23,12.68-1.68l.86-.36-.43.55ZM25.05,46.06a.51.51,0,0,1,.54-.17.55.55,0,0,1,.32.84c-.28.38-.74.65-1.05,1a1.9,1.9,0,0,0-.27.53h0a2.73,2.73,0,0,1,.46-2.22Zm-4.22-1.32a.69.69,0,0,1,.82,0,.82.82,0,0,1,.14.83,3.82,3.82,0,0,1-.81.61,2.61,2.61,0,0,0-1.11,1.07,4.06,4.06,0,0,1,.32-1.64,2.17,2.17,0,0,1,.64-.88Zm10.05-.52a.5.5,0,0,1,.43.05.6.6,0,0,1,.25.4,5.73,5.73,0,0,0,.21,1.08,4.36,4.36,0,0,0,.23.42,2.26,2.26,0,0,1-.85-.58,1.75,1.75,0,0,1-.53-.86.46.46,0,0,1,.26-.51Zm-13.16-2a.65.65,0,0,1,.69.15c.18.19.1.45.09.67a.46.46,0,0,1-.31.34c-.43.21-.93.39-1.35.6a2,2,0,0,0-.69.58,3.81,3.81,0,0,1,.38-1.12,2.69,2.69,0,0,1,1.19-1.22Zm17.87-3c0-.18.14-.34.33-.43a2.19,2.19,0,0,1,.94.32,1.48,1.48,0,0,0,.56.12,2.27,2.27,0,0,1-1.21.37c-.27,0-.58-.15-.62-.38ZM15.1,37.64a.51.51,0,0,1,.4,0,.6.6,0,0,1,.47.6c0,.27,0,.6-.3.77a16.89,16.89,0,0,0-1.8.92,2,2,0,0,0-.45.46,4.21,4.21,0,0,1,.89-2.13,2.35,2.35,0,0,1,.79-.62Zm7.42-2.91a4.51,4.51,0,0,1,1.33-.29,2.08,2.08,0,0,0-1,.57c-.09.13-.18.31,0,.43s.39.06.57.13.11.31.09.46a4.6,4.6,0,0,1-.67,1.35.51.51,0,0,0-.11.33c.14,0,.23-.09.33-.14a5.37,5.37,0,0,0,1.13-.91c.13-.16.33-.3.35-.51s-.26-.21-.28-.35a1.3,1.3,0,0,1,.72-.51,1.79,1.79,0,0,1,2,.32,5.14,5.14,0,0,0-1-.27c-.17,0-.37.07-.41.21s0,.38-.06.57a2.48,2.48,0,0,1-1.36,1.62,2.78,2.78,0,0,0-.73.37.62.62,0,0,0-.23.45,1.7,1.7,0,0,0,.51.07,2.73,2.73,0,0,0,1.14-.08c.33-.13.46-.45.81-.56a2.11,2.11,0,0,1,2.42.75,7.82,7.82,0,0,0-.81-.43,1,1,0,0,0-.93.12,2.3,2.3,0,0,0-.6.69c-.06.08-.12.19-.26.21s-.45-.16-.69-.1-.63.25-1,.33a1.65,1.65,0,0,1-.7,0,7.16,7.16,0,0,0-1.23-.19.65.65,0,0,0-.53.15,1.12,1.12,0,0,0-.17.64,11.19,11.19,0,0,1-.36-1.6,7.68,7.68,0,0,1-.06-2,1.84,1.84,0,0,1,.29.92.39.39,0,0,0,.32.35c.29,0,.45-.22.6-.38a1.67,1.67,0,0,0,.41-1.1c0-.18-.28-.18-.38-.31a.66.66,0,0,1-.09-.72,1.13,1.13,0,0,1,.66-.56ZM38,33.85c0-.14.21-.18.36-.17s.55,0,.83,0a1.59,1.59,0,0,1-.82.47c-.22,0-.42-.12-.37-.29Zm.2-3.43a3.67,3.67,0,0,0,.6-.28.92.92,0,0,1-.5.6c-.22,0-.29-.27-.1-.32Zm-9.92-3.55a2.93,2.93,0,0,0,1.9,2.42,11.65,11.65,0,0,0,4.08,0c1.05,0,2-.23,2.8.32a2.24,2.24,0,0,1,.74,1,11.82,11.82,0,0,1,.48,1.1,1.26,1.26,0,0,1-.14,1,3.07,3.07,0,0,0-.54,1.38c-.06.48-.15.94-.24,1.41a5.13,5.13,0,0,1-.44,1.41c-.23.41-.64.72-.91,1.11a7.41,7.41,0,0,0-.95,2c-.19.54-.26,1.11-.42,1.66A1.87,1.87,0,0,1,33.67,43a25.53,25.53,0,0,1-2.56.83A7.52,7.52,0,0,0,29.25,45a3.32,3.32,0,0,1-1.57.87c-1.26.19-1.58-.81-3.85,0a1,1,0,0,1-.87,0c-.54-.26-.6-1-1.21-1.33a8.44,8.44,0,0,0-2-.43,1,1,0,0,1-.71-.46c-.2-.4-.2-.83-.37-1.23-.44-.9-1.89-1.19-2.3-2s.14-1.32.15-2c-.05-.93-.67-1.39-1.9-1.43a7.31,7.31,0,0,0,1.16-2.84,1.93,1.93,0,0,1,.65-1,4.85,4.85,0,0,1,1.33-.45,2.73,2.73,0,0,1,1.55.08c1.16.63.89,2.31.28,3-.83.94-2.92.75-2.56-.72.43.36.85.91,1.45.26a.32.32,0,0,0,.07-.23.92.92,0,0,0-.6-.6.9.9,0,0,0-.54-.05,2,2,0,0,0-1.23,1c-.47.93.55,1.67,1.72,1.49a4.63,4.63,0,0,0,2.29-1.24,21.09,21.09,0,0,0,.1,3.26,9,9,0,0,0,.83,2.64A3.74,3.74,0,0,0,23,43.15a7.46,7.46,0,0,0,2.91.37,14.42,14.42,0,0,0,5.56-1.44c2.19-1.16,2.5-2.09,3.58-3.91a21,21,0,0,0,1.25-2.79,8.11,8.11,0,0,0,.59-2.85,2.56,2.56,0,0,0-.53-1.66c-1-1.21-3-.69-4.89-.75-.15.3-.27.64,0,.92.47.5,1.59.42,2.34.48-3.23,1.32-6.13-.12-6.93-2.66.67.84,1.76,2.56,3.41,2.05.6-.18.33-.61.13-.93,0-.12-.25-.12-.37-.16a2.46,2.46,0,0,1-1.76-2.95Zm-10.37-.55c.24.19.32.45.57.64,2.29,1.74,4.31,1.73,7.22,1.83-2.58.63-5.88.24-7.72-1.5a3,3,0,0,1-.59-.75c-.13-.4.23-.45.52-.22Zm10.82-.48c2.34-.12,4.73.76,5.48,3a3.18,3.18,0,0,0-2.06-.52c-.13,0-.25.1-.27.21s.07.36.14.55A2.77,2.77,0,0,1,29.2,28a3.41,3.41,0,0,0,.9.37,1.81,1.81,0,0,0,1.62-.54c.23-.25.08-.57-.18-.76a10.47,10.47,0,0,0-2.85-1.23Zm2.39-4.22c.31-.22.57-.48.85-.72-1.3,2-4.48,3.57-7,4-1.26.25-4,.58-5.18-.05-.13-.07-.26-.22-.14-.34a1.26,1.26,0,0,1,.73-.11c.49,0,1,0,1.51,0A23.33,23.33,0,0,0,25.69,24a13.58,13.58,0,0,0,5.39-2.41ZM7.44,14.39a1.74,1.74,0,0,1,1.08.13,1.91,1.91,0,0,1,.83.81.56.56,0,0,1,.13.5l-.34.07c-.1.09-.07.22-.07.33a5.37,5.37,0,0,0,.58,1.61.47.47,0,0,0,.18.19A7.38,7.38,0,0,1,10,16.22c.05-.09.1-.2.23-.22s.37.18.59.14.15-.28.14-.42c-.06-.37-.42-.62-.66-.92a3,3,0,0,1,1.26,1.25.72.72,0,0,1-.22.9.71.71,0,0,1-.52.06,1.29,1.29,0,0,0-.23,1.3c0,.11.05.3.25.29a4.44,4.44,0,0,0,1-.54,11,11,0,0,0-2,2.69,2.36,2.36,0,0,0,0-.75.58.58,0,0,0-.34-.31c-.38-.19-.83-.29-1.22-.47a2.71,2.71,0,0,1-.88-.87c-.17-.2-.48-.09-.68-.25a3,3,0,0,1-.09-.59c-.06-.31-.07-.71-.41-.91a2.33,2.33,0,0,0-1.21-.2h0a2,2,0,0,1,1-.18,2,2,0,0,1,1.28.72c.22.25.17.57.38.82a2.46,2.46,0,0,0,.6.42,2.33,2.33,0,0,0,.75.34.9.9,0,0,0-.21-.85,2.53,2.53,0,0,1-.61-1.38,1.54,1.54,0,0,1,.17-1c.08-.16.23-.34.1-.51s-.7-.3-1.06-.4ZM21.9,8.82c1.05.68,2.42,1.52,3.56,2.1-.25.2-.55.5-.88.5a8.53,8.53,0,0,1-2.68-2.6Zm1.53-2.29h0A15.08,15.08,0,0,0,29,11.07a4.79,4.79,0,0,0,2,.56c.41,0,.8-.24,1.2-.24a2.29,2.29,0,0,1,1.29.43.41.41,0,0,1,.2.27,2.28,2.28,0,0,0,.66,1.33,1.24,1.24,0,0,0,1,.14.81.81,0,0,0,.56.63c.32.06.58-.26.92-.17.14.18.22.36.37.54s.35.16.51.27a3.09,3.09,0,0,1,1.21,1.4,3.17,3.17,0,0,0-1.27-1c0,.79,0,1.91-.58,2.33a2.64,2.64,0,0,0-.3-1.46,4.15,4.15,0,0,1-1.55.93c.24-.29.7-.61.55-1a1.22,1.22,0,0,0-1-.14,3.22,3.22,0,0,0-1.35.73,6.2,6.2,0,0,0-.32-.79c-.28.05-1.32.39-1,.85s1.17.34,1.59.42a1.19,1.19,0,0,1,.64.56c0-.21,0-.42.07-.63a14.07,14.07,0,0,1,1.22,1.71c.52-.23.62-.47.68-1.13a1.63,1.63,0,0,1,.24,1,1,1,0,0,0,.33-.43,2.19,2.19,0,0,1-1.29,2.67c.23-.6.32-1.12-.49-1.12a15.07,15.07,0,0,0-2,.31c.24-.13,1.33-.75,1.14-1.11a.73.73,0,0,0-.4-.24,5.54,5.54,0,0,0-1.21-.4c-.21,0-.39.12-.57.19-1.06-.5-1.43.12-2.18.23A2,2,0,0,1,28,17.85c-.84-1.31.41-2.11,1.48-2.44-1.4-.17-2,.31-2.31,1.72a11.53,11.53,0,0,0-1.84-.4c-4.68-.69-8.38.69-10.53,3a13,13,0,0,0-3.33,8.37c-.06,3,.86,4.8,2.43,7.44a14.15,14.15,0,0,1-4-5.76c-.29.33-.19.74-.27,1.12-1.32-1.79.51-6.29,1.37-8.31a6.15,6.15,0,0,0-1.59,1.35c-.08-2.55,2.17-5.14,4.48-7.22a6.9,6.9,0,0,0-1.89.69c2.21-2.33,6.25-3.68,9.9-3.82a19.59,19.59,0,0,0-2.79-.49c2.85-.59,4.8-.62,6.73-1.89.89.58,1.94,1.17,2.45,1C26.8,11.11,24,8.54,23.43,6.53Zm8.42,6.08a4.35,4.35,0,0,0,.57.65,1,1,0,0,0,1,.33,2.13,2.13,0,0,0-.27-.62.39.39,0,0,0-.27-.14c-.35-.06-.69-.16-1-.22Z" style="fill:#fff;fill-rule:evenodd"/><path d="M1.5,10.79C8.69,6.3,16.94,2.72,24.27,1.52h0c7.33,1.2,15.58,4.78,22.78,9.27v.5C39.94,6.82,31.83,3.24,24.61,2h0C17.27,3.11,9,6.59,1.83,11c-.1,17,4.54,30.61,12.1,38.8C6.18,41.74,1.4,28.08,1.5,10.79Z" style="fill-rule:evenodd"/></svg>